<svg width="51" height="48" viewBox="0 0 51 48" fill="none" xmlns="http://www.w3.org/2000/svg">
<path d="M1 24C1 11.0213 11.5213 0.5 24.5 0.5H50V23C50 36.531 39.031 47.5 25.5 47.5H24.5C11.5213 47.5 1 36.9787 1 24Z" fill="#FF5E5B"/>
<path d="M30.1875 27.3125C30.5938 27.6875 30.5938 28.3438 30.1875 28.7188C30 28.9062 29.75 29 29.5 29C29.2188 29 28.9688 28.9062 28.7812 28.7188L25.5 25.4375L22.1875 28.7188C22 28.9062 21.75 29 21.5 29C21.2188 29 20.9688 28.9062 20.7812 28.7188C20.375 28.3438 20.375 27.6875 20.7812 27.3125L24.0625 24L20.7812 20.7188C20.375 20.3438 20.375 19.6875 20.7812 19.3125C21.1562 18.9062 21.8125 18.9062 22.1875 19.3125L25.5 22.5938L28.7812 19.3125C29.1562 18.9062 29.8125 18.9062 30.1875 19.3125C30.5938 19.6875 30.5938 20.3438 30.1875 20.7188L26.9062 24.0312L30.1875 27.3125Z" fill="#1D2D44"/>
<path d="M1 24C1 11.0213 11.5213 0.5 24.5 0.5H50V23C50 36.531 39.031 47.5 25.5 47.5H24.5C11.5213 47.5 1 36.9787 1 24Z" stroke="#4A5769"/>
</svg>
