<svg width="51" height="48" viewBox="0 0 51 48" fill="none" xmlns="http://www.w3.org/2000/svg">
<path d="M1 24C1 11.0213 11.5213 0.5 24.5 0.5H50V23C50 36.531 39.031 47.5 25.5 47.5H24.5C11.5213 47.5 1 36.9787 1 24Z" fill="#4EE7DC"/>
<path d="M32.1875 19.3125C32.5938 19.6875 32.5938 20.3438 32.1875 20.7188L24.1875 28.7188C23.8125 29.125 23.1562 29.125 22.7812 28.7188L18.7812 24.7188C18.375 24.3438 18.375 23.6875 18.7812 23.3125C19.1562 22.9062 19.8125 22.9062 20.1875 23.3125L23.4688 26.5938L30.7812 19.3125C31.1562 18.9062 31.8125 18.9062 32.1875 19.3125Z" fill="#1D2D44"/>
<path d="M1 24C1 11.0213 11.5213 0.5 24.5 0.5H50V23C50 36.531 39.031 47.5 25.5 47.5H24.5C11.5213 47.5 1 36.9787 1 24Z" stroke="#4A5769"/>
</svg>
